<svg id="Layer_1" data-name="Layer 1" xmlns="http://www.w3.org/2000/svg" viewBox="0 0 52 52"><defs><style>.cls-1{fill:#505050;}</style></defs><path class="cls-1" d="M26.17,13.61A12.84,12.84,0,1,0,39,26.44,12.85,12.85,0,0,0,26.17,13.61Zm0,24.2A11.37,11.37,0,1,1,37.53,26.44,11.38,11.38,0,0,1,26.17,37.81Z"/><path class="cls-1" d="M29.14,19.48H27.4a2.58,2.58,0,0,0-2.58,2.58v2H23.19a.74.74,0,0,0,0,1.47h1.63v6.8a.73.73,0,1,0,1.46,0v-6.8h2.51a.74.74,0,1,0,0-1.47H26.28v-2A1.12,1.12,0,0,1,27.4,21h1.74a.74.74,0,0,0,0-1.47Z"/></svg>