<svg id="Layer_1" data-name="Layer 1" xmlns="http://www.w3.org/2000/svg" viewBox="0 0 512 512"><defs><style>.cls-1{fill:#cf8d6d;}</style></defs><path class="cls-1" d="M5.62,314.35a322,322,0,0,1,45.81-46.1,314.7,314.7,0,0,1,26.63-19.58q6.8-4.47,13.82-8.59c4.56-2.68,9.24-5.73,14.13-7.77.65-.27,2.15-1,2.87-.5s.53,2.47.55,3.15c.12,3,.27,5.92.53,8.87a125.54,125.54,0,0,0,2.47,16.61c2.33,10.4,6.4,20.57,12.92,29.06a54.67,54.67,0,0,0,22.49,17.6c10.23,4.17,21.3,3.73,31.77.68,21.14-6.17,39.92-18.94,55.56-34.17,7.15-6.95,14.12-14.36,22.66-19.63,9.18-5.66,20.43-8.73,30-2.39,8.25,5.45,14.64,14,20.59,21.69S320.27,289.1,327.31,296a67.87,67.87,0,0,0,26,16.07c10.37,3.5,21.45,4.7,32.35,5,20.33.49,41-2.32,60.12-9.48a120.48,120.48,0,0,0,26.71-13.84,107.74,107.74,0,0,0,11.73-9.45c3.71-3.45,7-7.64,11.57-10,3.32-1.76,8.68-2.37,11.14,1.15,2.19,3.15,7.4.15,5.18-3a13.09,13.09,0,0,0-11.78-5.49c-4.93.29-9.08,2.74-12.76,5.89-3.87,3.32-7.26,7.16-11.17,10.46a101.3,101.3,0,0,1-12.91,9.23c-17.62,10.66-38.05,16.26-58.47,18-21.25,1.84-45.58,1.28-64-10.87-16.81-11.12-26.2-30.05-39.9-44.31-7.68-8-16.63-14.56-28.28-13.14-10.3,1.26-19.32,6.8-27.14,13.33S231,269.8,223.21,276.55a130.85,130.85,0,0,1-28.4,18.77c-10.49,5.13-22.28,9.74-34.17,8.8-9.69-.77-18.65-5.82-25.5-12.53-7.6-7.47-12.55-17-15.5-27.18a102.81,102.81,0,0,1-3.38-17.48c-.29-2.65-.5-5.32-.65-8s.1-5.61-.65-8.2c-1.57-5.45-7.2-5.75-11.63-3.79a151.83,151.83,0,0,0-14.85,8.15A321.81,321.81,0,0,0,61,253.28a325.19,325.19,0,0,0-49,44.44Q6.5,303.78,1.38,310.11c-2.41,3,1.81,7.24,4.24,4.24Z"/></svg>