<svg id="Layer_1" data-name="Layer 1" xmlns="http://www.w3.org/2000/svg" viewBox="0 0 656.22 595.33"><defs><style>.cls-1{fill:#fff;}</style></defs><path class="cls-1" d="M455.73,147.5h-7.62l-44.94.44,3,15.56H459.8c-.81-5.33-2.41-10.67-3.23-16Z"/><path class="cls-1" d="M203.28,163.5h45.89l3-15.56-44.06-.44h-5.5A95.23,95.23,0,0,1,203.28,163.5Z"/><path class="cls-1" d="M560.57,397.5H527.11V188.77a41.07,41.07,0,0,0-40.87-41.27H456.57c.82,5.33,2.42,10.67,3.23,16h26.09a25.05,25.05,0,0,1,25.22,24.88V397.5H381.26a8,8,0,0,0-8.15,7.76V430.5h-96V405.3a7.62,7.62,0,0,0-7.42-7.8H139.11V188.77a25.4,25.4,0,0,1,25.53-25.27h38.64a95.23,95.23,0,0,0-.67-16H164.74a41.42,41.42,0,0,0-41.63,41.2V397.5H95.92A7.67,7.67,0,0,0,88.11,405v49a41.42,41.42,0,0,0,41.32,41.53h397.3A41.42,41.42,0,0,0,568.11,454V405.3A7.67,7.67,0,0,0,560.57,397.5ZM552.11,454a25.4,25.4,0,0,1-25.27,25.53H129.49a25.4,25.4,0,0,1-25.38-25.42V413.5h157v24.81a8.39,8.39,0,0,0,8.26,8.19H381.26a8,8,0,0,0,7.85-8.19V413.5h163Z"/><path class="cls-1" d="M327.67,99.83a85.56,85.56,0,1,0,85.56,85.56A85.56,85.56,0,0,0,327.67,99.83Zm39,130.49a145.8,145.8,0,0,0,6.57-42.08h34.18a79.44,79.44,0,0,1-20,50A102.63,102.63,0,0,0,366.7,230.32Zm-98.81,7.92a79.5,79.5,0,0,1-20-50h34.19a146.13,146.13,0,0,0,6.56,42.08A102.18,102.18,0,0,0,267.89,238.24Zm20.75-97.78a146.08,146.08,0,0,0-6.56,42.08H247.89a79.5,79.5,0,0,1,20-50A102.77,102.77,0,0,0,288.64,140.46Zm36.18,42.08h-37a140.22,140.22,0,0,1,6.45-40.71,151.27,151.27,0,0,0,30.58,3.55Zm0,5.7v37.15A150.49,150.49,0,0,0,294.24,229a140.27,140.27,0,0,1-6.45-40.71Zm5.71,0h37A140.27,140.27,0,0,1,361.11,229a150.66,150.66,0,0,0-30.58-3.56Zm0-5.7V145.38a151.27,151.27,0,0,0,30.58-3.55,140.22,140.22,0,0,1,6.45,40.71Zm0-42.86V105.76c11.62,1.65,21.88,13.29,28.64,30.65A145.17,145.17,0,0,1,330.53,139.68Zm-5.71-33.92v33.92a145.17,145.17,0,0,1-28.64-3.27C302.94,119.05,313.2,107.41,324.82,105.76Zm0,125.34V265c-11.62-1.66-21.88-13.29-28.64-30.65A145.17,145.17,0,0,1,324.82,231.1ZM330.53,265V231.1a145.17,145.17,0,0,1,28.64,3.27C352.41,251.73,342.15,263.36,330.53,265Zm42.74-82.48a146.08,146.08,0,0,0-6.56-42.08,102.77,102.77,0,0,0,20.75-7.92,79.44,79.44,0,0,1,20,50Zm10.08-54.31a98.07,98.07,0,0,1-18.55,6.84,68.55,68.55,0,0,0-17.32-27A79.69,79.69,0,0,1,383.35,128.23Zm-92.8,6.84A98.42,98.42,0,0,1,272,128.23,79.8,79.8,0,0,1,307.87,108a68.52,68.52,0,0,0-17.32,27ZM272,242.55a99.15,99.15,0,0,1,18.56-6.85,68.52,68.52,0,0,0,17.32,27A79.87,79.87,0,0,1,272,242.55Zm92.81-6.85a98.8,98.8,0,0,1,18.55,6.85,79.8,79.8,0,0,1-35.87,20.2,68.52,68.52,0,0,0,17.32-27Z"/></svg>