<svg id="Layer_1" data-name="Layer 1" xmlns="http://www.w3.org/2000/svg" viewBox="0 0 656.22 595.33"><defs><style>.cls-1{fill:#fff;}</style></defs><path class="cls-1" d="M608.51,484.31a18.08,18.08,0,0,1-18,18.09H319a18.1,18.1,0,0,1-18-18.09,153.77,153.77,0,1,1,307.53,0ZM454.74,348.64A135.67,135.67,0,0,0,319.07,484.31s271.42,0,271.42,0A135.77,135.77,0,0,0,454.74,348.64Zm0-36.19A90.45,90.45,0,1,1,545.2,222,90.45,90.45,0,0,1,454.74,312.45Zm0-18.09A72.36,72.36,0,1,0,382.38,222,72.36,72.36,0,0,0,454.74,294.36Z"/><path class="cls-1" d="M355.25,484.31a18.09,18.09,0,0,1-18,18.09H65.73a18.1,18.1,0,0,1-18-18.09,153.77,153.77,0,0,1,307.54,0ZM201.48,348.64A135.67,135.67,0,0,0,65.8,484.31s271.42,0,271.42,0A135.77,135.77,0,0,0,201.48,348.64Zm0-36.19A90.45,90.45,0,1,1,291.93,222,90.45,90.45,0,0,1,201.48,312.45Zm0-18.09A72.36,72.36,0,1,0,129.12,222,72.36,72.36,0,0,0,201.48,294.36Z"/></svg>