<svg id="Layer_1" data-name="Layer 1" xmlns="http://www.w3.org/2000/svg" viewBox="0 0 656.22 595.33"><defs><style>.cls-1{fill:#fff;}</style></defs><path class="cls-1" d="M366.6,112.54A38.66,38.66,0,0,1,405.1,151v71.5H531.58A38.66,38.66,0,0,1,570.07,261V415a38.66,38.66,0,0,1-38.49,38.5H515.42l-.34,66a11,11,0,0,1-19.93,6.36l-51.56-72.36h-154a38.66,38.66,0,0,1-38.5-38.5V343.53H212.63l-51.55,72.35a11,11,0,0,1-19.94-6.36l-.34-66H124.65A38.67,38.67,0,0,1,86.15,305V151a38.66,38.66,0,0,1,38.5-38.5h242Zm0,22h-242a16.22,16.22,0,0,0-16.5,16.5V305a16.24,16.24,0,0,0,16.5,16.5h27.15a11,11,0,0,1,11,10.82l.17,42.8L198,326a11,11,0,0,1,8.93-4.47H366.6A16.24,16.24,0,0,0,383.1,305V151a16.22,16.22,0,0,0-16.5-16.5Zm165,110H405.1V305a38.67,38.67,0,0,1-38.5,38.5H273.12V415a16.22,16.22,0,0,0,16.49,16.5H449.26A11,11,0,0,1,458.2,436l35.05,49.16.17-42.8a11,11,0,0,1,11-10.83h27.15a16.23,16.23,0,0,0,16.5-16.5V261a16.23,16.23,0,0,0-16.5-16.5Z"/></svg>