<svg id="Layer_1" data-name="Layer 1" xmlns="http://www.w3.org/2000/svg" viewBox="0 0 52 52"><defs><style>.cls-1{fill:#505050;}</style></defs><path class="cls-1" d="M26.61,14.44a13,13,0,1,0,13,13A13,13,0,0,0,26.61,14.44Zm0,24.52A11.52,11.52,0,1,1,38.12,27.44,11.53,11.53,0,0,1,26.61,39Z"/><path class="cls-1" d="M31.35,21.08H21.88a1.57,1.57,0,0,0-1.57,1.57v9.59a1.57,1.57,0,0,0,1.57,1.57h9.47a1.58,1.58,0,0,0,1.57-1.57V22.65A1.58,1.58,0,0,0,31.35,21.08Zm.08,11.16a.09.09,0,0,1-.08.08H21.88a.09.09,0,0,1-.09-.08V22.65a.09.09,0,0,1,.09-.08h9.47a.09.09,0,0,1,.08.08Z"/><rect class="cls-1" x="28.78" y="23.68" width="1.7" height="1.56"/><circle class="cls-1" cx="26.61" cy="28.07" r="1.68"/><path class="cls-1" d="M29.29,28.07a2.68,2.68,0,0,1-5.36,0v-1.2h-1.2v4.45h7.74V26.87H29.3Z"/></svg>