<svg id="Layer_1" data-name="Layer 1" xmlns="http://www.w3.org/2000/svg" viewBox="0 0 52 52"><defs><style>.cls-1{fill:#505050;}</style></defs><path class="cls-1" d="M27.06,14.94a12.5,12.5,0,1,0,12.5,12.5A12.51,12.51,0,0,0,27.06,14.94Zm0,23.57A11.07,11.07,0,1,1,38.13,27.44,11.07,11.07,0,0,1,27.06,38.51Z"/><path class="cls-1" d="M23.48,24.57a.71.71,0,0,0-.71.71V31.2a.72.72,0,0,0,1.43,0V25.28A.71.71,0,0,0,23.48,24.57Z"/><path class="cls-1" d="M23.48,21.23a.75.75,0,0,0-.51.21.74.74,0,0,0,0,1,.72.72,0,0,0,1,0,.71.71,0,0,0,0-1A.75.75,0,0,0,23.48,21.23Z"/><path class="cls-1" d="M29.66,25.12a3.49,3.49,0,0,0-2,.65v-.49a.72.72,0,0,0-1.43,0V31.2a.72.72,0,0,0,1.43,0V28.56a2,2,0,1,1,4,0v2.79a.72.72,0,1,0,1.43,0V28.56A3.44,3.44,0,0,0,29.66,25.12Z"/></svg>